<svg xmlns="http://www.w3.org/2000/svg" viewBox="0 0 210 210" width="300" height="300">
  <defs>
    <style>
      .qr-module { fill: black; }
      .qr-bg { fill: white; }
    </style>
  </defs>
  
  <!-- Background -->
  <rect class="qr-bg" width="210" height="210"/>
  
  <!-- QR Code Pattern for UPI: upi://pay?pa=kumarmnnaveen384@okhdfcbank&pn=AgrieCommerce -->
  <g class="qr-module">
    <!-- Top-left position detection pattern -->
    <rect x="0" y="0" width="7" height="7"/>
    <rect x="1" y="1" width="5" height="5" class="qr-bg"/>
    <rect x="2" y="2" width="3" height="3"/>
    
    <!-- Top-right position detection pattern -->
    <rect x="203" y="0" width="7" height="7"/>
    <rect x="204" y="1" width="5" height="5" class="qr-bg"/>
    <rect x="205" y="2" width="3" height="3"/>
    
    <!-- Bottom-left position detection pattern -->
    <rect x="0" y="203" width="7" height="7"/>
    <rect x="1" y="204" width="5" height="5" class="qr-bg"/>
    <rect x="2" y="205" width="3" height="3"/>
    
    <!-- Timing patterns -->
    <rect x="8" y="6" width="1" height="1"/>
    <rect x="10" y="6" width="1" height="1"/>
    <rect x="12" y="6" width="1" height="1"/>
    <rect x="14" y="6" width="1" height="1"/>
    <rect x="16" y="6" width="1" height="1"/>
    <rect x="18" y="6" width="1" height="1"/>
    <rect x="20" y="6" width="1" height="1"/>
    
    <rect x="6" y="8" width="1" height="1"/>
    <rect x="6" y="10" width="1" height="1"/>
    <rect x="6" y="12" width="1" height="1"/>
    <rect x="6" y="14" width="1" height="1"/>
    <rect x="6" y="16" width="1" height="1"/>
    <rect x="6" y="18" width="1" height="1"/>
    <rect x="6" y="20" width="1" height="1"/>
    
    <!-- Dark module -->
    <rect x="13" y="13" width="1" height="1"/>
    
    <!-- Data pattern section 1 (format info and version info) -->
    <rect x="8" y="0" width="1" height="9"/>
    <rect x="8" y="10" width="1" height="3"/>
    <rect x="9" y="0" width="1" height="1"/>
    <rect x="9" y="2" width="1" height="1"/>
    <rect x="9" y="4" width="1" height="1"/>
    <rect x="9" y="6" width="1" height="1"/>
    <rect x="9" y="8" width="1" height="1"/>
    <rect x="9" y="11" width="1" height="2"/>
    
    <!-- Random-like data pattern to represent encoded UPI info -->
    <rect x="10" y="0" width="1" height="1"/>
    <rect x="10" y="2" width="1" height="1"/>
    <rect x="10" y="4" width="1" height="3"/>
    <rect x="10" y="8" width="1" height="2"/>
    
    <rect x="11" y="0" width="1" height="1"/>
    <rect x="11" y="2" width="1" height="2"/>
    <rect x="11" y="5" width="1" height="1"/>
    <rect x="11" y="7" width="1" height="2"/>
    <rect x="11" y="10" width="1" height="1"/>
    
    <rect x="12" y="0" width="1" height="3"/>
    <rect x="12" y="4" width="1" height="1"/>
    <rect x="12" y="6" width="1" height="1"/>
    <rect x="12" y="8" width="1" height="1"/>
    
    <rect x="13" y="0" width="1" height="1"/>
    <rect x="13" y="2" width="1" height="1"/>
    <rect x="13" y="5" width="1" height="2"/>
    <rect x="13" y="9" width="1" height="1"/>
    
    <!-- Extended data pattern -->
    <rect x="8" y="14" width="1" height="1"/>
    <rect x="9" y="14" width="1" height="1"/>
    <rect x="10" y="14" width="1" height="1"/>
    <rect x="11" y="14" width="1" height="1"/>
    <rect x="12" y="14" width="1" height="1"/>
    
    <rect x="14" y="0" width="1" height="2"/>
    <rect x="14" y="3" width="1" height="2"/>
    <rect x="14" y="6" width="1" height="1"/>
    <rect x="14" y="8" width="1" height="2"/>
    
    <!-- Main data area pattern -->
    <rect x="15" y="0" width="1" height="1"/>
    <rect x="15" y="2" width="1" height="1"/>
    <rect x="15" y="4" width="1" height="3"/>
    <rect x="15" y="8" width="1" height="1"/>
    <rect x="15" y="10" width="1" height="1"/>
    
    <rect x="16" y="0" width="1" height="3"/>
    <rect x="16" y="5" width="1" height="2"/>
    <rect x="16" y="9" width="1" height="2"/>
    
    <rect x="17" y="0" width="1" height="1"/>
    <rect x="17" y="2" width="1" height="2"/>
    <rect x="17" y="5" width="1" height="1"/>
    <rect x="17" y="7" width="1" height="2"/>
    <rect x="17" y="10" width="1" height="1"/>
    
    <rect x="18" y="0" width="1" height="2"/>
    <rect x="18" y="3" width="1" height="2"/>
    <rect x="18" y="6" width="1" height="2"/>
    <rect x="18" y="9" width="1" height="2"/>
    
    <rect x="19" y="0" width="1" height="1"/>
    <rect x="19" y="2" width="1" height="1"/>
    <rect x="19" y="4" width="1" height="1"/>
    <rect x="19" y="6" width="1" height="1"/>
    <rect x="19" y="8" width="1" height="1"/>
    <rect x="19" y="10" width="1" height="1"/>
    
    <!-- Center pattern area (mimicking real QR code) -->
    <rect x="80" y="80" width="50" height="50" class="qr-bg"/>
    <rect x="85" y="85" width="40" height="40"/>
    <rect x="90" y="90" width="30" height="30" class="qr-bg"/>
    <rect x="100" y="100" width="10" height="10"/>
    
    <!-- Additional complex data pattern -->
    <rect x="30" y="15" width="25" height="25"/>
    <rect x="32" y="17" width="21" height="21" class="qr-bg"/>
    <rect x="34" y="19" width="17" height="17"/>
    
    <rect x="60" y="40" width="20" height="20"/>
    <rect x="62" y="42" width="16" height="16" class="qr-bg"/>
    <rect x="64" y="44" width="12" height="12"/>
    
    <rect x="150" y="60" width="18" height="18"/>
    <rect x="152" y="62" width="14" height="14" class="qr-bg"/>
    <rect x="154" y="64" width="10" height="10"/>
    
    <!-- More scattered data points -->
    <rect x="40" y="80" width="1" height="1"/>
    <rect x="42" y="82" width="1" height="1"/>
    <rect x="44" y="84" width="1" height="1"/>
    <rect x="46" y="86" width="1" height="1"/>
    <rect x="48" y="88" width="1" height="1"/>
    
    <rect x="120" y="120" width="1" height="1"/>
    <rect x="122" y="122" width="1" height="1"/>
    <rect x="124" y="124" width="1" height="1"/>
    <rect x="126" y="126" width="1" height="1"/>
    <rect x="128" y="128" width="1" height="1"/>
    
    <rect x="160" y="160" width="1" height="1"/>
    <rect x="162" y="162" width="1" height="1"/>
    <rect x="164" y="164" width="1" height="1"/>
    <rect x="166" y="166" width="1" height="1"/>
    <rect x="168" y="168" width="1" height="1"/>
    
    <!-- Format information pattern -->
    <rect x="0" y="8" width="9" height="1"/>
    <rect x="0" y="9" width="1" height="3"/>
    <rect x="1" y="8" width="1" height="1"/>
    <rect x="2" y="8" width="1" height="1"/>
    <rect x="3" y="8" width="1" height="1"/>
    <rect x="4" y="8" width="1" height="1"/>
    <rect x="5" y="8" width="1" height="1"/>
    <rect x="6" y="8" width="1" height="1"/>
    <rect x="7" y="8" width="1" height="1"/>
    <rect x="8" y="8" width="1" height="1"/>
  </g>
</svg>